<?xml version="1.0" encoding="utf-8"?>
<!-- Generator: Adobe Illustrator 23.0.4, SVG Export Plug-In . SVG Version: 6.00 Build 0)  -->
<!DOCTYPE svg PUBLIC "-//W3C//DTD SVG 1.1//EN" "http://www.w3.org/Graphics/SVG/1.1/DTD/svg11.dtd" [
	<!ENTITY ns_extend "http://ns.adobe.com/Extensibility/1.0/">
	<!ENTITY ns_ai "http://ns.adobe.com/AdobeIllustrator/10.0/">
	<!ENTITY ns_graphs "http://ns.adobe.com/Graphs/1.0/">
	<!ENTITY ns_vars "http://ns.adobe.com/Variables/1.0/">
	<!ENTITY ns_imrep "http://ns.adobe.com/ImageReplacement/1.0/">
	<!ENTITY ns_sfw "http://ns.adobe.com/SaveForWeb/1.0/">
	<!ENTITY ns_custom "http://ns.adobe.com/GenericCustomNamespace/1.0/">
	<!ENTITY ns_adobe_xpath "http://ns.adobe.com/XPath/1.0/">
]>
<svg version="1.1"
	 id="svg8" xmlns:x="&ns_extend;" xmlns:i="&ns_ai;" xmlns:graph="&ns_graphs;" inkscape:version="0.92.1 r15371" sodipodi:docname="Paris 2024.svg" xmlns:cc="http://creativecommons.org/ns#" xmlns:dc="http://purl.org/dc/elements/1.1/" xmlns:inkscape="http://www.inkscape.org/namespaces/inkscape" xmlns:rdf="http://www.w3.org/1999/02/22-rdf-syntax-ns#" xmlns:sodipodi="http://sodipodi.sourceforge.net/DTD/sodipodi-0.dtd" xmlns:svg="http://www.w3.org/2000/svg"
	 xmlns="http://www.w3.org/2000/svg" xmlns:xlink="http://www.w3.org/1999/xlink" x="0px" y="0px" viewBox="0 0 696.8 1208.6"
	 style="enable-background:new 0 0 696.8 1208.6;" xml:space="preserve">
<style type="text/css">
	.st0{fill:url(#path3678_1_);}
	.st1{fill:url(#path3704_1_);}
	.st2{fill:url(#path3728_1_);}
	.st3{clip-path:url(#SVGID_2_);fill:url(#path68_1_);}
	.st4{clip-path:url(#SVGID_6_);fill:url(#path214_1_);}
</style>
<metadata  id="metadata5">
	<rdf:RDF>
		<cc:Work  rdf:about="">
			<dc:format>image/svg+xml</dc:format>
			<dc:type  rdf:resource="http://purl.org/dc/dcmitype/StillImage"></dc:type>
			<dc:title></dc:title>
		</cc:Work>
	</rdf:RDF>
	<sfw  xmlns="&ns_sfw;">
		<slices></slices>
		<sliceSourceBounds  bottomLeftOrigin="true" height="1208.6" width="696.8" x="-273.3" y="-396.8"></sliceSourceBounds>
	</sfw>
</metadata>
<sodipodi:namedview  bordercolor="#666666" borderopacity="1.0" fit-margin-bottom="0" fit-margin-left="0" fit-margin-right="0" fit-margin-top="0" id="base" inkscape:current-layer="layer1" inkscape:cx="105.79309" inkscape:cy="208.3477" inkscape:document-units="mm" inkscape:pagecheckerboard="true" inkscape:pageopacity="0.0" inkscape:pageshadow="2" inkscape:window-height="644" inkscape:window-maximized="0" inkscape:window-width="899" inkscape:window-x="712" inkscape:window-y="115" inkscape:zoom="0.70910507" pagecolor="#ffffff" showgrid="false">
	</sodipodi:namedview>
<g id="g3654">
	<g id="g3660">
		<g id="g3662">
			
				<linearGradient id="path3678_1_" gradientUnits="userSpaceOnUse" x1="96.0357" y1="905.3132" x2="102.0357" y2="905.3132" gradientTransform="matrix(98.0459 -65.364 -65.364 -98.0459 49769.2383 96175.1406)">
				<stop  offset="0" style="stop-color:#3134A0"/>
				<stop  offset="5.774000e-03" style="stop-color:#3134A0"/>
				<stop  offset="0.4516" style="stop-color:#00A2EC"/>
				<stop  offset="0.5012" style="stop-color:#00A2EC"/>
				<stop  offset="0.6638" style="stop-color:#00A2EC"/>
				<stop  offset="1" style="stop-color:#76B71C"/>
			</linearGradient>
			<path id="path3678" inkscape:connector-curvature="0" class="st0" d="M234.4,859.8C145.9,914.1,62,981.5,2.5,1074.7l0,0
				c0,0-0.1,0.2-0.2,0.3l0,0c-17.9,28.1,77.7,102.9,85,102.9l0,0c55-90.1,134.7-171.9,223-227.3l0,0
				C414.6,885.3,534.6,837.4,658.2,831l0,0c0.6,0-39.5-90.8-76.1-90.8l0,0C457.8,746.7,339.5,795.3,234.4,859.8"/>
		</g>
	</g>
</g>
<g id="g3682">
	<g id="g3688">
		<g id="g3690">
			
				<linearGradient id="path3704_1_" gradientUnits="userSpaceOnUse" x1="97.5182" y1="909.7514" x2="103.5182" y2="909.7514" gradientTransform="matrix(41.6845 189.3383 189.3383 -41.6845 -176005.75 19480.2168)">
				<stop  offset="0" style="stop-color:#E20613"/>
				<stop  offset="8.598400e-02" style="stop-color:#E20613"/>
				<stop  offset="0.6717" style="stop-color:#E80073"/>
				<stop  offset="0.6752" style="stop-color:#E80073"/>
				<stop  offset="1" style="stop-color:#FFD000"/>
			</linearGradient>
			<path id="path3704" inkscape:connector-curvature="0" class="st1" d="M281.6,35c-6.1,176.9,22.9,1024.3,266.5,1173.1l0,0
				c7.6,4.6,148.7-21.5,148.7-21.5l0,0C387.3,888.4,385,154.2,382.6,5.4l0,0c-0.1-3.7-6.8-5.4-16.8-5.4l0,0
				C337.1,0,281.6,14.2,281.6,35"/>
		</g>
	</g>
</g>
<g id="g3708">
	<g id="g3714">
		<g id="g3716">
			
				<linearGradient id="path3728_1_" gradientUnits="userSpaceOnUse" x1="94.8021" y1="908.5863" x2="100.8021" y2="908.5863" gradientTransform="matrix(13.1978 -127.3188 -127.3188 -13.1978 114499.4141 25243.5156)">
				<stop  offset="0" style="stop-color:#7FDCFF"/>
				<stop  offset="0.5045" style="stop-color:#009EFF"/>
				<stop  offset="0.9934" style="stop-color:#1E348A"/>
				<stop  offset="1" style="stop-color:#1E348A"/>
			</linearGradient>
			<path id="path3728" inkscape:connector-curvature="0" class="st2" d="M92.8,371.8c-33,2.5-61.4,26.6-81.7,50.3l0,0
				c-18.1,21,76.1,90.8,76.1,90.8l0,0c18.1-22.3,40.2-40.7,68.2-48.3l0,0c6.2-1.7,12.7-2.4,19.1-2.1l0,0
				c9.3,42.6,6.8,89.1,3.9,131.6l0,0c-3.4,49.8-12.9,99-25.3,147.2l0,0c-30,116.4-84.9,235.2-150.7,333.4l0,0
				C-16,1103.6,77.3,1178,87.3,1178l0,0c235.3-349.9,183.3-667.9,120.4-751l0,0c-21.6-28.5-51.7-55.6-102.9-55.6l0,0
				C100.9,371.4,96.9,371.5,92.8,371.8"/>
		</g>
	</g>
</g>
<g>
	<defs>
		<path id="SVGID_1_" d="M87.4,1177.9C87.4,1177.9,87.4,1177.8,87.4,1177.9C87.4,1177.8,87.4,1177.9,87.4,1177.9L87.4,1177.9z"/>
	</defs>
	<clipPath id="SVGID_2_">
		<use xlink:href="#SVGID_1_"  style="overflow:visible;"/>
	</clipPath>
	
		<linearGradient id="path68_1_" gradientUnits="userSpaceOnUse" x1="88.9625" y1="920.6895" x2="94.9625" y2="920.6895" gradientTransform="matrix(31.1562 -20.7708 20.7708 31.1562 -21841.918 -25636.8086)">
		<stop  offset="0" style="stop-color:#3142A0"/>
		<stop  offset="5.800000e-03" style="stop-color:#3142A0"/>
		<stop  offset="0.5012" style="stop-color:#52A5E0"/>
		<stop  offset="1" style="stop-color:#66C430"/>
	</linearGradient>
	<path id="path68" inkscape:connector-curvature="0" class="st3" d="M87.4,1177.9C87.4,1177.9,87.4,1177.8,87.4,1177.9
		C87.4,1177.8,87.4,1177.9,87.4,1177.9L87.4,1177.9"/>
</g>
<g>
	<defs>
		<path id="SVGID_3_" d="M548.2,1208.1c7.6,4.6,148.7-21.5,148.7-21.5c-85.8-82.7-148-198.9-193.1-326.8
			c-43,13.5-84.8,31.2-124.9,51.8C418.4,1050,473.1,1162.2,548.2,1208.1z"/>
	</defs>
	<clipPath id="SVGID_4_">
		<use xlink:href="#SVGID_3_"  style="overflow:visible;"/>
	</clipPath>
</g>
<g>
	<defs>
		<path id="SVGID_5_" d="M107.2,1147.4c-6.9,10-13.5,20.2-19.8,30.4C94.3,1167.7,100.8,1157.5,107.2,1147.4z"/>
	</defs>
	<clipPath id="SVGID_6_">
		<use xlink:href="#SVGID_5_"  style="overflow:visible;"/>
	</clipPath>
	
		<linearGradient id="path214_1_" gradientUnits="userSpaceOnUse" x1="94.8021" y1="908.7802" x2="100.8021" y2="908.7802" gradientTransform="matrix(13.1978 -127.319 127.319 13.1978 -116861.125 1260.8376)">
		<stop  offset="0" style="stop-color:#7FD6F7"/>
		<stop  offset="0.5045" style="stop-color:#5594D6"/>
		<stop  offset="0.9934" style="stop-color:#274597"/>
		<stop  offset="1" style="stop-color:#284496"/>
	</linearGradient>
	<path id="path214" inkscape:connector-curvature="0" class="st4" d="M107.2,1147.4c-6.9,10-13.5,20.2-19.8,30.4
		C94.3,1167.7,100.8,1157.5,107.2,1147.4"/>
</g>
</svg>
